<svg width="170" height="35" viewBox="0 0 170 35" fill="none" xmlns="http://www.w3.org/2000/svg">
<path d="M3.9519 4.00709V0H8.83789V4.00709H3.9519ZM3.78424 24.3304C3.12959 24.3304 2.45896 24.2745 1.77237 24.1625C1.06981 24.0505 0.479018 23.9305 0 23.8026V19.8915C0.750462 20.0034 1.42109 20.0594 2.01188 20.0594C3.24136 20.0594 3.8561 19.4835 3.8561 18.3318V9.26188H2.25139V5.32678H9.36481V17.8519C9.36481 20.0434 8.90175 21.667 7.97565 22.7228C7.04955 23.7946 5.65241 24.3304 3.78424 24.3304Z" fill="#262626"/>
<path d="M24.8725 14.7326V18.6677H18.5494V17.0361C18.1981 17.548 17.7032 18.0039 17.0645 18.4038C16.4417 18.8037 15.6753 19.0037 14.7652 19.0037C13.5676 19.0037 12.6256 18.6837 11.939 18.0439C11.2524 17.404 10.9091 16.5002 10.9091 15.3325C10.9091 12.3092 13.4718 10.7575 18.5973 10.6776C18.5494 10.1337 18.3418 9.76577 17.9746 9.57381C17.6073 9.36586 16.9846 9.26188 16.1064 9.26188C15.3879 9.26188 14.6135 9.34187 13.7832 9.50183C12.9689 9.6458 12.2184 9.84575 11.5318 10.1017V5.6867C12.3781 5.47875 13.2962 5.31079 14.2862 5.18282C15.2761 5.05484 16.2421 4.99086 17.1842 4.99086C19.5633 4.99086 21.2639 5.42276 22.2858 6.28656C23.3077 7.15037 23.8186 8.48606 23.8186 10.2936V14.7326H24.8725ZM18.5494 13.053C17.8309 13.053 17.272 13.149 16.8729 13.341C16.4896 13.5329 16.298 13.8528 16.298 14.3007C16.298 14.5727 16.3779 14.7966 16.5375 14.9726C16.7132 15.1325 16.9527 15.2125 17.2561 15.2125C17.6712 15.2125 17.9906 15.0366 18.2141 14.6846C18.4376 14.3327 18.5494 13.8368 18.5494 13.197V13.053Z" fill="#262626"/>
<path d="M30.8418 19.0037C29.2132 19.0037 27.9837 18.3958 27.1534 17.1801C26.3391 15.9644 25.9319 14.2367 25.9319 11.9973C25.9319 9.75777 26.3391 8.03017 27.1534 6.81444C27.9837 5.59872 29.2132 4.99086 30.8418 4.99086C31.6562 4.99086 32.3747 5.19081 32.9974 5.59072C33.6361 5.99063 34.1551 6.44653 34.5542 6.95841V3.9351H33.1411V0H40.0629V14.7326H41.1168V18.6677H34.5542V17.0361C34.1551 17.548 33.6361 18.0039 32.9974 18.4038C32.3747 18.8037 31.6562 19.0037 30.8418 19.0037ZM33.1651 14.7326C33.6281 14.7326 33.9714 14.6127 34.195 14.3727C34.4345 14.1168 34.5542 13.7249 34.5542 13.197V10.7975C34.5542 10.2697 34.4345 9.88574 34.195 9.6458C33.9714 9.38985 33.6281 9.26188 33.1651 9.26188C32.702 9.26188 32.3508 9.38985 32.1112 9.6458C31.8877 9.88574 31.7759 10.2697 31.7759 10.7975V13.197C31.7759 13.7249 31.8877 14.1168 32.1112 14.3727C32.3508 14.6127 32.702 14.7326 33.1651 14.7326Z" fill="#262626"/>
<path d="M51.1571 7.34232L49.3608 8.49406V14.7326H50.4146V18.6917H42.7982V14.7326H43.8521V12.0213L42.5348 12.8611H42.0557V9.95772L43.8521 8.80599V3.9351H42.7982V0H49.3608V5.27879L50.6781 4.43899H51.1571V7.34232Z" fill="#262626"/>
<path d="M58.8949 19.0037C56.6276 19.0037 54.8552 18.4118 53.5778 17.2281C52.3004 16.0283 51.6617 14.2847 51.6617 11.9973C51.6617 9.70978 52.3004 7.97418 53.5778 6.79045C54.8552 5.59072 56.6276 4.99086 58.8949 4.99086C61.1942 4.99086 62.9745 5.59872 64.236 6.81444C65.4974 8.01417 66.1281 9.74177 66.1281 11.9973C66.1281 14.2847 65.4894 16.0283 64.212 17.2281C62.9346 18.4118 61.1623 19.0037 58.8949 19.0037ZM58.8949 14.7326C59.358 14.7326 59.7013 14.6127 59.9248 14.3727C60.1643 14.1168 60.2841 13.7249 60.2841 13.197V10.7975C60.2841 10.2697 60.1643 9.88574 59.9248 9.6458C59.7013 9.38985 59.358 9.26188 58.8949 9.26188C58.4319 9.26188 58.0806 9.38985 57.8411 9.6458C57.6175 9.88574 57.5058 10.2697 57.5058 10.7975V13.197C57.5058 13.7249 57.6175 14.1168 57.8411 14.3727C58.0806 14.6127 58.4319 14.7326 58.8949 14.7326Z" fill="#262626"/>
<path d="M72.0879 19.0037C70.4593 19.0037 69.2298 18.3958 68.3995 17.1801C67.5852 15.9644 67.178 14.2367 67.178 11.9973C67.178 9.75777 67.5852 8.03017 68.3995 6.81444C69.2298 5.59872 70.4593 4.99086 72.0879 4.99086C72.9023 4.99086 73.6208 5.19081 74.2435 5.59072C74.8822 5.99063 75.4011 6.44653 75.8003 6.95841V3.9351H74.3872V0H81.309V14.7326H82.3629V18.6677H75.8003V17.0361C75.4011 17.548 74.8822 18.0039 74.2435 18.4038C73.6208 18.8037 72.9023 19.0037 72.0879 19.0037ZM74.4112 14.7326C74.8742 14.7326 75.2175 14.6127 75.4411 14.3727C75.6806 14.1168 75.8003 13.7249 75.8003 13.197V10.7975C75.8003 10.2697 75.6806 9.88574 75.4411 9.6458C75.2175 9.38985 74.8742 9.26188 74.4112 9.26188C73.9481 9.26188 73.5968 9.38985 73.3573 9.6458C73.1338 9.88574 73.022 10.2697 73.022 10.7975V13.197C73.022 13.7249 73.1338 14.1168 73.3573 14.3727C73.5968 14.6127 73.9481 14.7326 74.4112 14.7326Z" fill="#6FA540"/>
<path d="M83.5174 18.6677V15.0926L89.3614 9.26188H87.2298V10.1257H83.6611V5.32678H96.2353V8.758L90.535 14.7326H92.8343V13.3889H96.4509V18.6677H83.5174Z" fill="#6FA540"/>
<path d="M98.8546 4.00709V0H103.741V4.00709H98.8546ZM97.7049 18.6677V14.7326H98.7588V9.26188H97.7049V5.32678H104.267V14.7326H105.321V18.6677H97.7049Z" fill="#6FA540"/>
<path d="M113.601 19.0037C111.334 19.0037 109.561 18.4118 108.284 17.2281C107.007 16.0283 106.368 14.2847 106.368 11.9973C106.368 9.70978 107.007 7.97418 108.284 6.79045C109.561 5.59072 111.334 4.99086 113.601 4.99086C115.853 4.99086 117.473 5.58272 118.463 6.76645C119.469 7.93419 119.972 9.38986 119.972 11.1335V12.8611H112.212V13.005C112.212 13.5969 112.388 14.0368 112.739 14.3247C113.09 14.5967 113.673 14.7326 114.487 14.7326C115.461 14.7326 116.388 14.6607 117.266 14.5167C118.144 14.3727 118.91 14.1888 119.565 13.9648V17.8039C119.006 18.1079 118.184 18.3878 117.098 18.6437C116.028 18.8837 114.863 19.0037 113.601 19.0037ZM114.99 10.2217V9.93373C114.99 9.38985 114.871 8.99794 114.631 8.758C114.408 8.51805 114.064 8.39808 113.601 8.39808C113.138 8.39808 112.787 8.52605 112.547 8.78199C112.324 9.02194 112.212 9.40585 112.212 9.93373V10.2217H114.99Z" fill="#6FA540"/>
<path d="M121.164 18.6917V14.7326H122.218V3.9351H121.164V0H127.726V14.7326H128.78V18.6917H121.164Z" fill="#6FA540"/>
<path d="M145.92 14.7326V18.6677H138.351V14.7326H139.357V10.7975C139.357 10.2697 139.245 9.88574 139.022 9.6458C138.798 9.38985 138.463 9.26188 138.016 9.26188C137.058 9.26188 136.579 9.77377 136.579 10.7975V14.7326H137.585V18.6677H130.016V14.7326H131.07V9.26188H130.016V5.32678H136.579V7.19836C137.728 5.72669 139.165 4.99086 140.89 4.99086C142.215 4.99086 143.205 5.40676 143.86 6.23858C144.53 7.07038 144.866 8.21412 144.866 9.66979V14.7326H145.92Z" fill="#6FA540"/>
<path d="M148.322 4.00709V0H153.208V4.00709H148.322ZM147.172 18.6677V14.7326H148.226V9.26188H147.172V5.32678H153.735V14.7326H154.788V18.6677H147.172Z" fill="#6FA540"/>
<path d="M169.894 14.7326V18.6677H163.571V17.0361C163.22 17.548 162.725 18.0039 162.086 18.4038C161.464 18.8037 160.697 19.0037 159.787 19.0037C158.589 19.0037 157.647 18.6837 156.961 18.0439C156.274 17.404 155.931 16.5002 155.931 15.3325C155.931 12.3092 158.494 10.7575 163.619 10.6776C163.571 10.1337 163.364 9.76577 162.996 9.57381C162.629 9.36586 162.006 9.26188 161.128 9.26188C160.41 9.26188 159.635 9.34187 158.805 9.50183C157.991 9.6458 157.24 9.84575 156.554 10.1017V5.6867C157.4 5.47875 158.318 5.31079 159.308 5.18282C160.298 5.05484 161.264 4.99086 162.206 4.99086C164.585 4.99086 166.286 5.42276 167.308 6.28656C168.329 7.15037 168.84 8.48606 168.84 10.2936V14.7326H169.894ZM163.571 13.053C162.853 13.053 162.294 13.149 161.895 13.341C161.511 13.5329 161.32 13.8528 161.32 14.3007C161.32 14.5727 161.4 14.7966 161.559 14.9726C161.735 15.1325 161.974 15.2125 162.278 15.2125C162.693 15.2125 163.012 15.0366 163.236 14.6846C163.459 14.3327 163.571 13.8368 163.571 13.197V13.053Z" fill="#6FA540"/>
<path d="M101.68 35C100.338 35 99.045 34.7868 97.7996 34.3602V31.9927H100.386V32.1527C100.386 32.6646 100.711 32.9205 101.36 32.9205C101.935 32.9205 102.222 32.7232 102.222 32.3286C102.222 32.1154 102.137 31.9554 101.967 31.8488C101.807 31.7421 101.52 31.6515 101.105 31.5768L100.306 31.4329C98.6352 31.1343 97.7996 30.1851 97.7996 28.5855C97.7996 27.6577 98.1508 26.9379 98.8534 26.426C99.556 25.9141 100.503 25.6582 101.696 25.6582C103.026 25.6582 104.149 25.8821 105.065 26.33V28.5535H102.638V28.3935C102.638 28.1803 102.563 28.0203 102.414 27.9137C102.276 27.7964 102.068 27.7377 101.791 27.7377C101.259 27.7377 100.993 27.9083 100.993 28.2496C100.993 28.4309 101.068 28.5695 101.217 28.6655C101.366 28.7615 101.637 28.8521 102.031 28.9374L102.941 29.1134C103.888 29.2947 104.564 29.6306 104.969 30.1212C105.373 30.6117 105.576 31.2409 105.576 32.0087C105.576 32.9792 105.235 33.7203 104.554 34.2322C103.883 34.7441 102.925 35 101.68 35Z" fill="#6FA540"/>
<path d="M106.335 34.7761V32.3926L110.231 28.5055H108.81V29.0814H106.431V25.8821H114.814V28.1696L111.013 32.1527H112.546V31.2569H114.957V34.7761H106.335Z" fill="#6FA540"/>
<path d="M120.568 35C119.045 35 117.858 34.6055 117.007 33.8163C116.155 33.0165 115.729 31.8541 115.729 30.3291C115.729 28.8041 116.155 27.6471 117.007 26.8579C117.858 26.0581 119.04 25.6582 120.552 25.6582C121.286 25.6582 121.989 25.7595 122.659 25.9621C123.33 26.1647 123.851 26.394 124.224 26.6499V29.8172H121.478V29.5293C121.478 29.1774 121.403 28.9214 121.254 28.7615C121.105 28.5908 120.871 28.5055 120.552 28.5055C119.934 28.5055 119.625 28.8468 119.625 29.5293V30.905C119.625 31.7368 120.099 32.1527 121.047 32.1527C121.93 32.1527 122.957 32.0567 124.128 31.8648V34.3762C123.766 34.5361 123.255 34.6801 122.595 34.8081C121.946 34.9361 121.27 35 120.568 35Z" fill="#6FA540"/>
<path d="M125.015 34.7761V32.3926L128.911 28.5055H127.49V29.0814H125.111V25.8821H133.493V28.1696L129.693 32.1527H131.226V31.2569H133.637V34.7761H125.015Z" fill="#6FA540"/>
<path d="M139.231 35C137.72 35 136.538 34.6055 135.687 33.8163C134.835 33.0165 134.409 31.8541 134.409 30.3291C134.409 28.8041 134.835 27.6471 135.687 26.8579C136.538 26.0581 137.72 25.6582 139.231 25.6582C140.732 25.6582 141.813 26.0527 142.473 26.8419C143.143 27.6204 143.479 28.5908 143.479 29.7532V30.905H138.305V31.001C138.305 31.3955 138.422 31.6888 138.657 31.8808C138.891 32.062 139.279 32.1527 139.822 32.1527C140.472 32.1527 141.089 32.1047 141.674 32.0087C142.26 31.9127 142.771 31.7901 143.207 31.6408V34.2002C142.835 34.4028 142.286 34.5895 141.563 34.7601C140.849 34.9201 140.072 35 139.231 35ZM140.157 29.1454V28.9534C140.157 28.5908 140.078 28.3296 139.918 28.1696C139.769 28.0096 139.54 27.9297 139.231 27.9297C138.923 27.9297 138.688 28.015 138.529 28.1856C138.38 28.3456 138.305 28.6015 138.305 28.9534V29.1454H140.157Z" fill="#6FA540"/>
<path d="M149.047 35C147.525 35 146.338 34.6055 145.487 33.8163C144.635 33.0165 144.209 31.8541 144.209 30.3291C144.209 28.8041 144.635 27.6471 145.487 26.8579C146.338 26.0581 147.52 25.6582 149.031 25.6582C149.766 25.6582 150.468 25.7595 151.139 25.9621C151.81 26.1647 152.331 26.394 152.704 26.6499V29.8172H149.957V29.5293C149.957 29.1774 149.883 28.9214 149.734 28.7615C149.585 28.5908 149.351 28.5055 149.031 28.5055C148.414 28.5055 148.105 28.8468 148.105 29.5293V30.905C148.105 31.7368 148.579 32.1527 149.526 32.1527C150.41 32.1527 151.437 32.0567 152.608 31.8648V34.3762C152.246 34.5361 151.735 34.6801 151.075 34.8081C150.426 34.9361 149.75 35 149.047 35Z" fill="#6FA540"/>
<path d="M154.325 25.0023V22.3309H157.582V25.0023H154.325ZM153.558 34.7761V32.1527H154.261V28.5055H153.558V25.8821H157.933V32.1527H158.636V34.7761H153.558Z" fill="#6FA540"/>
<path d="M170 32.1527V34.7761H164.954V32.1527H165.625V29.5293C165.625 29.1774 165.55 28.9214 165.401 28.7615C165.252 28.5908 165.029 28.5055 164.731 28.5055C164.092 28.5055 163.773 28.8468 163.773 29.5293V32.1527H164.443V34.7761H159.398V32.1527H160.1V28.5055H159.398V25.8821H163.773V27.1298C164.539 26.1487 165.497 25.6582 166.647 25.6582C167.53 25.6582 168.19 25.9354 168.627 26.49C169.074 27.0445 169.297 27.807 169.297 28.7775V32.1527H170Z" fill="#6FA540"/>
</svg>
